<svg width="72px" height="72px" viewBox="0 0 72 72" xmlns="http://www.w3.org/2000/svg" xmlns:xlink="http://www.w3.org/1999/xlink" preserveAspectRatio="xMidYMid meet" ><rect id="svgEditorBackground" x="0" y="0" width="211" height="72" style="fill:none;stroke:none;"/><title>carbon-logo</title><g fill="#242426" fill-rule="evenodd"><path d="M26.69 53H15.41a3.056 3.056 0 0 1-2.627-1.479l-8.362-14a2.96 2.96 0 0 1 0-3.042l8.362-14A3.056 3.056 0 0 1 15.41 19h11.28a6 6 0 0 0 5.151-2.923l6.33-10.598A3.056 3.056 0 0 1 40.798 4H55.59c1.08 0 2.078.563 2.626 1.479l8.362 14a2.96 2.96 0 0 1 0 3.042l-6.213 10.402a6 6 0 0 0 0 6.154l6.213 10.402a2.96 2.96 0 0 1 0 3.042l-8.362 14A3.056 3.056 0 0 1 55.59 68H40.797a3.056 3.056 0 0 1-2.626-1.479l-6.33-10.598A6 6 0 0 0 26.688 53zM15.106 24.479l-5.974 10a2.96 2.96 0 0 0 0 3.042l5.974 10A3.056 3.056 0 0 0 17.733 49H27.88c1.08 0 2.079-.563 2.626-1.479l5.973-10a2.96 2.96 0 0 0 0-3.042l-5.973-10A3.056 3.056 0 0 0 27.88 23H17.733c-1.08 0-2.079.563-2.626 1.479zm25.387-15l-5.973 10a2.96 2.96 0 0 0 0 3.042l5.973 10A3.056 3.056 0 0 0 43.12 34h10.147c1.08 0 2.079-.563 2.626-1.479l5.974-10a2.96 2.96 0 0 0 0-3.042l-5.974-10A3.056 3.056 0 0 0 53.267 8H43.12c-1.08 0-2.079.563-2.626 1.479zm0 30l-5.973 10a2.96 2.96 0 0 0 0 3.042l5.973 10A3.056 3.056 0 0 0 43.12 64h10.147c1.08 0 2.079-.563 2.626-1.479l5.974-10a2.96 2.96 0 0 0 0-3.042l-5.974-10A3.056 3.056 0 0 0 53.267 38H43.12c-1.08 0-2.079.563-2.626 1.479z" fill-rule="nonzero"/></g></svg>